<mxfile host="app.diagrams.net" modified="2023-04-20T16:38:35.625Z" agent="Mozilla/5.0 (Windows NT 10.0; Win64; x64) AppleWebKit/537.36 (KHTML, like Gecko) Chrome/111.0.0.0 Safari/537.36 OPR/97.0.0.0" etag="WNXJEmqKXRO4zwp0eDzD" version="21.2.1" type="device">
  <diagram name="Strona-1" id="IupOXpbPvDGT-5ru1-mx">
    <mxGraphModel dx="1743" dy="948" grid="1" gridSize="10" guides="1" tooltips="1" connect="1" arrows="1" fold="1" page="1" pageScale="1" pageWidth="2339" pageHeight="3300" math="0" shadow="0">
      <root>
        <mxCell id="0" />
        <mxCell id="1" parent="0" />
        <mxCell id="yhZZLa7tLPmsXTIk6oLj-17" style="edgeStyle=orthogonalEdgeStyle;rounded=0;orthogonalLoop=1;jettySize=auto;html=1;exitX=0.75;exitY=0.1;exitDx=0;exitDy=0;exitPerimeter=0;entryX=0;entryY=0.5;entryDx=0;entryDy=0;" edge="1" parent="1" source="yhZZLa7tLPmsXTIk6oLj-2" target="yhZZLa7tLPmsXTIk6oLj-6">
          <mxGeometry relative="1" as="geometry" />
        </mxCell>
        <mxCell id="yhZZLa7tLPmsXTIk6oLj-25" style="edgeStyle=orthogonalEdgeStyle;rounded=0;orthogonalLoop=1;jettySize=auto;html=1;exitX=0.75;exitY=0.1;exitDx=0;exitDy=0;exitPerimeter=0;entryX=0;entryY=0.5;entryDx=0;entryDy=0;" edge="1" parent="1" source="yhZZLa7tLPmsXTIk6oLj-2" target="yhZZLa7tLPmsXTIk6oLj-9">
          <mxGeometry relative="1" as="geometry" />
        </mxCell>
        <mxCell id="yhZZLa7tLPmsXTIk6oLj-26" style="edgeStyle=orthogonalEdgeStyle;rounded=0;orthogonalLoop=1;jettySize=auto;html=1;exitX=0.75;exitY=0.1;exitDx=0;exitDy=0;exitPerimeter=0;" edge="1" parent="1" source="yhZZLa7tLPmsXTIk6oLj-2" target="yhZZLa7tLPmsXTIk6oLj-10">
          <mxGeometry relative="1" as="geometry" />
        </mxCell>
        <mxCell id="yhZZLa7tLPmsXTIk6oLj-44" style="edgeStyle=orthogonalEdgeStyle;rounded=0;orthogonalLoop=1;jettySize=auto;html=1;exitX=0.75;exitY=0.1;exitDx=0;exitDy=0;exitPerimeter=0;entryX=0;entryY=0.5;entryDx=0;entryDy=0;" edge="1" parent="1" source="yhZZLa7tLPmsXTIk6oLj-2" target="yhZZLa7tLPmsXTIk6oLj-41">
          <mxGeometry relative="1" as="geometry" />
        </mxCell>
        <mxCell id="yhZZLa7tLPmsXTIk6oLj-50" style="edgeStyle=orthogonalEdgeStyle;rounded=0;orthogonalLoop=1;jettySize=auto;html=1;exitX=0.75;exitY=0.1;exitDx=0;exitDy=0;exitPerimeter=0;entryX=0.5;entryY=0;entryDx=0;entryDy=0;" edge="1" parent="1" source="yhZZLa7tLPmsXTIk6oLj-2" target="yhZZLa7tLPmsXTIk6oLj-35">
          <mxGeometry relative="1" as="geometry">
            <mxPoint x="189.66666666666674" y="120" as="targetPoint" />
            <Array as="points">
              <mxPoint x="420" y="248" />
              <mxPoint x="420" y="140" />
              <mxPoint x="820" y="140" />
            </Array>
          </mxGeometry>
        </mxCell>
        <mxCell id="yhZZLa7tLPmsXTIk6oLj-56" style="edgeStyle=orthogonalEdgeStyle;rounded=0;orthogonalLoop=1;jettySize=auto;html=1;exitX=0.75;exitY=0.1;exitDx=0;exitDy=0;exitPerimeter=0;entryX=0;entryY=0.5;entryDx=0;entryDy=0;" edge="1" parent="1" source="yhZZLa7tLPmsXTIk6oLj-2" target="yhZZLa7tLPmsXTIk6oLj-11">
          <mxGeometry relative="1" as="geometry">
            <Array as="points">
              <mxPoint x="420" y="248" />
              <mxPoint x="420" y="200" />
            </Array>
          </mxGeometry>
        </mxCell>
        <mxCell id="yhZZLa7tLPmsXTIk6oLj-62" style="edgeStyle=orthogonalEdgeStyle;rounded=0;orthogonalLoop=1;jettySize=auto;html=1;exitX=0.75;exitY=0.1;exitDx=0;exitDy=0;exitPerimeter=0;entryX=0;entryY=0.5;entryDx=0;entryDy=0;" edge="1" parent="1" source="yhZZLa7tLPmsXTIk6oLj-2" target="yhZZLa7tLPmsXTIk6oLj-61">
          <mxGeometry relative="1" as="geometry">
            <Array as="points">
              <mxPoint x="460" y="248" />
              <mxPoint x="460" y="320" />
              <mxPoint x="580" y="320" />
              <mxPoint x="580" y="600" />
            </Array>
          </mxGeometry>
        </mxCell>
        <mxCell id="yhZZLa7tLPmsXTIk6oLj-2" value="Pacjent" style="shape=umlActor;html=1;verticalLabelPosition=bottom;verticalAlign=top;align=center;" vertex="1" parent="1">
          <mxGeometry x="120" y="240" width="40" height="80" as="geometry" />
        </mxCell>
        <mxCell id="yhZZLa7tLPmsXTIk6oLj-31" style="edgeStyle=orthogonalEdgeStyle;rounded=0;orthogonalLoop=1;jettySize=auto;html=1;exitX=0.25;exitY=0.1;exitDx=0;exitDy=0;exitPerimeter=0;entryX=1;entryY=0.5;entryDx=0;entryDy=0;" edge="1" parent="1" source="yhZZLa7tLPmsXTIk6oLj-3" target="yhZZLa7tLPmsXTIk6oLj-16">
          <mxGeometry relative="1" as="geometry">
            <Array as="points">
              <mxPoint x="920" y="408" />
              <mxPoint x="920" y="680" />
            </Array>
          </mxGeometry>
        </mxCell>
        <mxCell id="yhZZLa7tLPmsXTIk6oLj-40" style="edgeStyle=orthogonalEdgeStyle;rounded=0;orthogonalLoop=1;jettySize=auto;html=1;exitX=0.25;exitY=0.1;exitDx=0;exitDy=0;exitPerimeter=0;entryX=1;entryY=0.5;entryDx=0;entryDy=0;" edge="1" parent="1" source="yhZZLa7tLPmsXTIk6oLj-3" target="yhZZLa7tLPmsXTIk6oLj-38">
          <mxGeometry relative="1" as="geometry">
            <Array as="points">
              <mxPoint x="940" y="408" />
              <mxPoint x="940" y="800" />
            </Array>
          </mxGeometry>
        </mxCell>
        <mxCell id="yhZZLa7tLPmsXTIk6oLj-43" style="edgeStyle=orthogonalEdgeStyle;rounded=0;orthogonalLoop=1;jettySize=auto;html=1;exitX=0.25;exitY=0.1;exitDx=0;exitDy=0;exitPerimeter=0;entryX=1;entryY=0.5;entryDx=0;entryDy=0;" edge="1" parent="1" source="yhZZLa7tLPmsXTIk6oLj-3" target="yhZZLa7tLPmsXTIk6oLj-41">
          <mxGeometry relative="1" as="geometry" />
        </mxCell>
        <mxCell id="yhZZLa7tLPmsXTIk6oLj-53" style="edgeStyle=orthogonalEdgeStyle;rounded=0;orthogonalLoop=1;jettySize=auto;html=1;exitX=0.25;exitY=0.1;exitDx=0;exitDy=0;exitPerimeter=0;entryX=1;entryY=1;entryDx=0;entryDy=0;" edge="1" parent="1" source="yhZZLa7tLPmsXTIk6oLj-3" target="yhZZLa7tLPmsXTIk6oLj-13">
          <mxGeometry relative="1" as="geometry">
            <Array as="points">
              <mxPoint x="740" y="408" />
              <mxPoint x="740" y="228" />
            </Array>
          </mxGeometry>
        </mxCell>
        <mxCell id="yhZZLa7tLPmsXTIk6oLj-57" style="edgeStyle=orthogonalEdgeStyle;rounded=0;orthogonalLoop=1;jettySize=auto;html=1;exitX=0.25;exitY=0.1;exitDx=0;exitDy=0;exitPerimeter=0;entryX=1;entryY=0.5;entryDx=0;entryDy=0;" edge="1" parent="1" source="yhZZLa7tLPmsXTIk6oLj-3" target="yhZZLa7tLPmsXTIk6oLj-11">
          <mxGeometry relative="1" as="geometry">
            <Array as="points">
              <mxPoint x="740" y="408" />
              <mxPoint x="740" y="260" />
              <mxPoint x="580" y="260" />
              <mxPoint x="580" y="200" />
            </Array>
          </mxGeometry>
        </mxCell>
        <mxCell id="yhZZLa7tLPmsXTIk6oLj-59" style="edgeStyle=orthogonalEdgeStyle;rounded=0;orthogonalLoop=1;jettySize=auto;html=1;exitX=0.25;exitY=0.1;exitDx=0;exitDy=0;exitPerimeter=0;entryX=0.5;entryY=0;entryDx=0;entryDy=0;" edge="1" parent="1" source="yhZZLa7tLPmsXTIk6oLj-3" target="yhZZLa7tLPmsXTIk6oLj-58">
          <mxGeometry relative="1" as="geometry" />
        </mxCell>
        <mxCell id="yhZZLa7tLPmsXTIk6oLj-63" style="edgeStyle=orthogonalEdgeStyle;rounded=0;orthogonalLoop=1;jettySize=auto;html=1;exitX=0.25;exitY=0.1;exitDx=0;exitDy=0;exitPerimeter=0;entryX=1;entryY=0.5;entryDx=0;entryDy=0;" edge="1" parent="1" source="yhZZLa7tLPmsXTIk6oLj-3" target="yhZZLa7tLPmsXTIk6oLj-61">
          <mxGeometry relative="1" as="geometry" />
        </mxCell>
        <mxCell id="yhZZLa7tLPmsXTIk6oLj-3" value="Lekarz" style="shape=umlActor;html=1;verticalLabelPosition=bottom;verticalAlign=top;align=center;" vertex="1" parent="1">
          <mxGeometry x="1040" y="400" width="40" height="80" as="geometry" />
        </mxCell>
        <mxCell id="yhZZLa7tLPmsXTIk6oLj-18" style="edgeStyle=orthogonalEdgeStyle;rounded=0;orthogonalLoop=1;jettySize=auto;html=1;exitX=0.75;exitY=0.1;exitDx=0;exitDy=0;exitPerimeter=0;entryX=0;entryY=0.5;entryDx=0;entryDy=0;" edge="1" parent="1" source="yhZZLa7tLPmsXTIk6oLj-4" target="yhZZLa7tLPmsXTIk6oLj-7">
          <mxGeometry relative="1" as="geometry" />
        </mxCell>
        <mxCell id="yhZZLa7tLPmsXTIk6oLj-21" style="edgeStyle=orthogonalEdgeStyle;rounded=0;orthogonalLoop=1;jettySize=auto;html=1;exitX=0.75;exitY=0.1;exitDx=0;exitDy=0;exitPerimeter=0;entryX=0;entryY=0.5;entryDx=0;entryDy=0;" edge="1" parent="1" source="yhZZLa7tLPmsXTIk6oLj-4" target="yhZZLa7tLPmsXTIk6oLj-15">
          <mxGeometry relative="1" as="geometry" />
        </mxCell>
        <mxCell id="yhZZLa7tLPmsXTIk6oLj-37" style="edgeStyle=orthogonalEdgeStyle;rounded=0;orthogonalLoop=1;jettySize=auto;html=1;exitX=0.75;exitY=0.1;exitDx=0;exitDy=0;exitPerimeter=0;entryX=0;entryY=0.5;entryDx=0;entryDy=0;" edge="1" parent="1" source="yhZZLa7tLPmsXTIk6oLj-4" target="yhZZLa7tLPmsXTIk6oLj-36">
          <mxGeometry relative="1" as="geometry" />
        </mxCell>
        <mxCell id="yhZZLa7tLPmsXTIk6oLj-4" value="Pracownik administracyjny&lt;br&gt;" style="shape=umlActor;html=1;verticalLabelPosition=bottom;verticalAlign=top;align=center;" vertex="1" parent="1">
          <mxGeometry x="120" y="560" width="40" height="80" as="geometry" />
        </mxCell>
        <mxCell id="yhZZLa7tLPmsXTIk6oLj-6" value="Rezerwacja wizyty" style="ellipse;whiteSpace=wrap;html=1;" vertex="1" parent="1">
          <mxGeometry x="280" y="380" width="120" height="80" as="geometry" />
        </mxCell>
        <mxCell id="yhZZLa7tLPmsXTIk6oLj-7" value="Potwierdzanie wizyty" style="ellipse;whiteSpace=wrap;html=1;" vertex="1" parent="1">
          <mxGeometry x="440" y="500" width="120" height="80" as="geometry" />
        </mxCell>
        <mxCell id="yhZZLa7tLPmsXTIk6oLj-9" value="System płatności" style="ellipse;whiteSpace=wrap;html=1;" vertex="1" parent="1">
          <mxGeometry x="280" y="160" width="120" height="80" as="geometry" />
        </mxCell>
        <mxCell id="yhZZLa7tLPmsXTIk6oLj-10" value="Anulowanie wizyty" style="ellipse;whiteSpace=wrap;html=1;" vertex="1" parent="1">
          <mxGeometry x="280" y="260" width="120" height="80" as="geometry" />
        </mxCell>
        <mxCell id="yhZZLa7tLPmsXTIk6oLj-11" value="Historia wizyt&amp;nbsp;" style="ellipse;whiteSpace=wrap;html=1;" vertex="1" parent="1">
          <mxGeometry x="440" y="160" width="120" height="80" as="geometry" />
        </mxCell>
        <mxCell id="yhZZLa7tLPmsXTIk6oLj-34" style="edgeStyle=orthogonalEdgeStyle;rounded=0;orthogonalLoop=1;jettySize=auto;html=1;exitX=0.25;exitY=0.1;exitDx=0;exitDy=0;exitPerimeter=0;entryX=1;entryY=0;entryDx=0;entryDy=0;" edge="1" parent="1" source="yhZZLa7tLPmsXTIk6oLj-12" target="yhZZLa7tLPmsXTIk6oLj-16">
          <mxGeometry relative="1" as="geometry">
            <Array as="points">
              <mxPoint x="900" y="168" />
              <mxPoint x="900" y="652" />
            </Array>
          </mxGeometry>
        </mxCell>
        <mxCell id="yhZZLa7tLPmsXTIk6oLj-52" style="edgeStyle=orthogonalEdgeStyle;rounded=0;orthogonalLoop=1;jettySize=auto;html=1;exitX=0.25;exitY=0.1;exitDx=0;exitDy=0;exitPerimeter=0;entryX=1;entryY=0.5;entryDx=0;entryDy=0;" edge="1" parent="1" source="yhZZLa7tLPmsXTIk6oLj-12" target="yhZZLa7tLPmsXTIk6oLj-35">
          <mxGeometry relative="1" as="geometry" />
        </mxCell>
        <mxCell id="yhZZLa7tLPmsXTIk6oLj-12" value="Technik laboratoryjny" style="shape=umlActor;verticalLabelPosition=bottom;verticalAlign=top;html=1;outlineConnect=0;" vertex="1" parent="1">
          <mxGeometry x="1040" y="160" width="40" height="80" as="geometry" />
        </mxCell>
        <mxCell id="yhZZLa7tLPmsXTIk6oLj-13" value="Skierowanie na badania" style="ellipse;whiteSpace=wrap;html=1;" vertex="1" parent="1">
          <mxGeometry x="600" y="160" width="120" height="80" as="geometry" />
        </mxCell>
        <mxCell id="yhZZLa7tLPmsXTIk6oLj-15" value="Planowanie dyżurów personelu" style="ellipse;whiteSpace=wrap;html=1;" vertex="1" parent="1">
          <mxGeometry x="280" y="640" width="120" height="80" as="geometry" />
        </mxCell>
        <mxCell id="yhZZLa7tLPmsXTIk6oLj-16" value="Plan personelu" style="ellipse;whiteSpace=wrap;html=1;" vertex="1" parent="1">
          <mxGeometry x="480" y="640" width="120" height="80" as="geometry" />
        </mxCell>
        <mxCell id="yhZZLa7tLPmsXTIk6oLj-19" value="&amp;lt;&amp;lt;include&amp;gt;&amp;gt;" style="html=1;verticalAlign=bottom;labelBackgroundColor=none;endArrow=open;endFill=0;dashed=1;rounded=0;exitX=0.5;exitY=1;exitDx=0;exitDy=0;entryX=0;entryY=0;entryDx=0;entryDy=0;" edge="1" parent="1" source="yhZZLa7tLPmsXTIk6oLj-6" target="yhZZLa7tLPmsXTIk6oLj-7">
          <mxGeometry x="-0.0366" y="-16" width="160" relative="1" as="geometry">
            <mxPoint x="380" y="390" as="sourcePoint" />
            <mxPoint x="540" y="390" as="targetPoint" />
            <mxPoint y="1" as="offset" />
          </mxGeometry>
        </mxCell>
        <mxCell id="yhZZLa7tLPmsXTIk6oLj-22" value="&amp;lt;&amp;lt;include&amp;gt;&amp;gt;" style="html=1;verticalAlign=bottom;labelBackgroundColor=none;endArrow=open;endFill=0;dashed=1;rounded=0;exitX=1;exitY=0.5;exitDx=0;exitDy=0;entryX=0;entryY=0.5;entryDx=0;entryDy=0;" edge="1" parent="1" source="yhZZLa7tLPmsXTIk6oLj-15" target="yhZZLa7tLPmsXTIk6oLj-16">
          <mxGeometry width="160" relative="1" as="geometry">
            <mxPoint x="380" y="390" as="sourcePoint" />
            <mxPoint x="540" y="390" as="targetPoint" />
          </mxGeometry>
        </mxCell>
        <mxCell id="yhZZLa7tLPmsXTIk6oLj-24" value="&amp;lt;&amp;lt;include&amp;gt;&amp;gt;" style="html=1;verticalAlign=bottom;labelBackgroundColor=none;endArrow=open;endFill=0;dashed=1;rounded=0;entryX=0.5;entryY=1;entryDx=0;entryDy=0;exitX=0;exitY=0;exitDx=0;exitDy=0;" edge="1" parent="1" source="yhZZLa7tLPmsXTIk6oLj-47" target="yhZZLa7tLPmsXTIk6oLj-11">
          <mxGeometry width="160" relative="1" as="geometry">
            <mxPoint x="500" y="500" as="sourcePoint" />
            <mxPoint x="540" y="390" as="targetPoint" />
          </mxGeometry>
        </mxCell>
        <mxCell id="yhZZLa7tLPmsXTIk6oLj-28" value="&amp;lt;&amp;lt;include&amp;gt;&amp;gt;" style="html=1;verticalAlign=bottom;labelBackgroundColor=none;endArrow=open;endFill=0;dashed=1;rounded=0;exitX=0.351;exitY=0.006;exitDx=0;exitDy=0;exitPerimeter=0;entryX=1;entryY=1;entryDx=0;entryDy=0;" edge="1" parent="1" source="yhZZLa7tLPmsXTIk6oLj-7" target="yhZZLa7tLPmsXTIk6oLj-9">
          <mxGeometry x="0.1634" y="-6" width="160" relative="1" as="geometry">
            <mxPoint x="380" y="390" as="sourcePoint" />
            <mxPoint x="540" y="390" as="targetPoint" />
            <mxPoint as="offset" />
          </mxGeometry>
        </mxCell>
        <mxCell id="yhZZLa7tLPmsXTIk6oLj-29" value="&amp;lt;&amp;lt;extend&amp;gt;&amp;gt;" style="html=1;verticalAlign=bottom;labelBackgroundColor=none;endArrow=open;endFill=0;dashed=1;rounded=0;exitX=0.667;exitY=1;exitDx=0;exitDy=0;exitPerimeter=0;" edge="1" parent="1" source="yhZZLa7tLPmsXTIk6oLj-10" target="yhZZLa7tLPmsXTIk6oLj-7">
          <mxGeometry x="-0.5822" y="7" width="160" relative="1" as="geometry">
            <mxPoint x="480" y="500" as="sourcePoint" />
            <mxPoint x="580" y="430" as="targetPoint" />
            <mxPoint as="offset" />
          </mxGeometry>
        </mxCell>
        <mxCell id="yhZZLa7tLPmsXTIk6oLj-35" value="Wykonanie badań laboratoryjnych" style="ellipse;whiteSpace=wrap;html=1;" vertex="1" parent="1">
          <mxGeometry x="760" y="160" width="120" height="80" as="geometry" />
        </mxCell>
        <mxCell id="yhZZLa7tLPmsXTIk6oLj-36" value="Planowanie harmonogramu operacji operacji" style="ellipse;whiteSpace=wrap;html=1;" vertex="1" parent="1">
          <mxGeometry x="280" y="760" width="120" height="80" as="geometry" />
        </mxCell>
        <mxCell id="yhZZLa7tLPmsXTIk6oLj-38" value="Plan operacji" style="ellipse;whiteSpace=wrap;html=1;" vertex="1" parent="1">
          <mxGeometry x="480" y="760" width="120" height="80" as="geometry" />
        </mxCell>
        <mxCell id="yhZZLa7tLPmsXTIk6oLj-39" value="&amp;lt;&amp;lt;include&amp;gt;&amp;gt;" style="html=1;verticalAlign=bottom;labelBackgroundColor=none;endArrow=open;endFill=0;dashed=1;rounded=0;exitX=1;exitY=0.5;exitDx=0;exitDy=0;entryX=0;entryY=0.5;entryDx=0;entryDy=0;" edge="1" parent="1">
          <mxGeometry width="160" relative="1" as="geometry">
            <mxPoint x="400" y="799.58" as="sourcePoint" />
            <mxPoint x="480" y="799.58" as="targetPoint" />
          </mxGeometry>
        </mxCell>
        <mxCell id="yhZZLa7tLPmsXTIk6oLj-41" value="Wyniki badań laboratoryjnych" style="ellipse;whiteSpace=wrap;html=1;" vertex="1" parent="1">
          <mxGeometry x="760" y="280" width="120" height="80" as="geometry" />
        </mxCell>
        <mxCell id="yhZZLa7tLPmsXTIk6oLj-42" value="&amp;lt;&amp;lt;include&amp;gt;&amp;gt;" style="html=1;verticalAlign=bottom;labelBackgroundColor=none;endArrow=open;endFill=0;dashed=1;rounded=0;entryX=0.5;entryY=0;entryDx=0;entryDy=0;exitX=0.5;exitY=1;exitDx=0;exitDy=0;" edge="1" parent="1" source="yhZZLa7tLPmsXTIk6oLj-35" target="yhZZLa7tLPmsXTIk6oLj-41">
          <mxGeometry width="160" relative="1" as="geometry">
            <mxPoint x="820" y="250" as="sourcePoint" />
            <mxPoint x="819.5799999999999" y="240" as="targetPoint" />
          </mxGeometry>
        </mxCell>
        <mxCell id="yhZZLa7tLPmsXTIk6oLj-46" value="&amp;lt;&amp;lt;include&amp;gt;&amp;gt;" style="html=1;verticalAlign=bottom;labelBackgroundColor=none;endArrow=open;endFill=0;dashed=1;rounded=0;entryX=0;entryY=0.5;entryDx=0;entryDy=0;exitX=1;exitY=0.5;exitDx=0;exitDy=0;" edge="1" parent="1" source="yhZZLa7tLPmsXTIk6oLj-13" target="yhZZLa7tLPmsXTIk6oLj-35">
          <mxGeometry width="160" relative="1" as="geometry">
            <mxPoint x="520" y="520" as="sourcePoint" />
            <mxPoint x="520" y="260" as="targetPoint" />
          </mxGeometry>
        </mxCell>
        <mxCell id="yhZZLa7tLPmsXTIk6oLj-47" value="Wizyta" style="ellipse;whiteSpace=wrap;html=1;" vertex="1" parent="1">
          <mxGeometry x="600" y="360" width="120" height="80" as="geometry" />
        </mxCell>
        <mxCell id="yhZZLa7tLPmsXTIk6oLj-48" value="&amp;lt;&amp;lt;include&amp;gt;&amp;gt;" style="html=1;verticalAlign=bottom;labelBackgroundColor=none;endArrow=open;endFill=0;dashed=1;rounded=0;entryX=0.5;entryY=0;entryDx=0;entryDy=0;exitX=0.5;exitY=1;exitDx=0;exitDy=0;" edge="1" parent="1" source="yhZZLa7tLPmsXTIk6oLj-58" target="yhZZLa7tLPmsXTIk6oLj-61">
          <mxGeometry width="160" relative="1" as="geometry">
            <mxPoint x="530" y="530" as="sourcePoint" />
            <mxPoint x="530" y="270" as="targetPoint" />
          </mxGeometry>
        </mxCell>
        <mxCell id="yhZZLa7tLPmsXTIk6oLj-49" value="&amp;lt;&amp;lt;extend&amp;gt;&amp;gt;" style="html=1;verticalAlign=bottom;labelBackgroundColor=none;endArrow=open;endFill=0;dashed=1;rounded=0;entryX=0.5;entryY=0;entryDx=0;entryDy=0;exitX=0.5;exitY=1;exitDx=0;exitDy=0;" edge="1" parent="1" source="yhZZLa7tLPmsXTIk6oLj-13" target="yhZZLa7tLPmsXTIk6oLj-47">
          <mxGeometry width="160" relative="1" as="geometry">
            <mxPoint x="380" y="410" as="sourcePoint" />
            <mxPoint x="540" y="410" as="targetPoint" />
          </mxGeometry>
        </mxCell>
        <mxCell id="yhZZLa7tLPmsXTIk6oLj-54" value="&amp;lt;&amp;lt;include&amp;gt;&amp;gt;" style="html=1;verticalAlign=bottom;labelBackgroundColor=none;endArrow=open;endFill=0;dashed=1;rounded=0;entryX=1;entryY=0;entryDx=0;entryDy=0;exitX=0;exitY=0;exitDx=0;exitDy=0;" edge="1" parent="1" source="yhZZLa7tLPmsXTIk6oLj-35" target="yhZZLa7tLPmsXTIk6oLj-9">
          <mxGeometry width="160" relative="1" as="geometry">
            <mxPoint x="540" y="540" as="sourcePoint" />
            <mxPoint x="540" y="280" as="targetPoint" />
            <Array as="points">
              <mxPoint x="580" y="100" />
            </Array>
          </mxGeometry>
        </mxCell>
        <mxCell id="yhZZLa7tLPmsXTIk6oLj-58" value="Wystawienie recepty" style="ellipse;whiteSpace=wrap;html=1;" vertex="1" parent="1">
          <mxGeometry x="720" y="450" width="120" height="80" as="geometry" />
        </mxCell>
        <mxCell id="yhZZLa7tLPmsXTIk6oLj-60" value="&amp;lt;&amp;lt;extend&amp;gt;&amp;gt;" style="html=1;verticalAlign=bottom;labelBackgroundColor=none;endArrow=open;endFill=0;dashed=1;rounded=0;exitX=0;exitY=0;exitDx=0;exitDy=0;entryX=1;entryY=1;entryDx=0;entryDy=0;" edge="1" parent="1" source="yhZZLa7tLPmsXTIk6oLj-58" target="yhZZLa7tLPmsXTIk6oLj-47">
          <mxGeometry width="160" relative="1" as="geometry">
            <mxPoint x="670" y="250" as="sourcePoint" />
            <mxPoint x="680" y="490" as="targetPoint" />
          </mxGeometry>
        </mxCell>
        <mxCell id="yhZZLa7tLPmsXTIk6oLj-61" value="Historia recept" style="ellipse;whiteSpace=wrap;html=1;" vertex="1" parent="1">
          <mxGeometry x="720" y="560" width="120" height="80" as="geometry" />
        </mxCell>
      </root>
    </mxGraphModel>
  </diagram>
</mxfile>
